<svg xmlns="http://www.w3.org/2000/svg" viewBox="0 0 144.67 37.71"><defs><style>.cls-1,.cls-2,.cls-3{fill:#f5f5f5;}.cls-2{font-size:17.07px;letter-spacing:0.2em;}.cls-2,.cls-3{font-family:Chivo-Bold, Chivo;font-weight:700;}.cls-3{font-size:8.59px;letter-spacing:0.6em;}</style></defs><g id="Layer_2" data-name="Layer 2"><g id="Layer_2-2" data-name="Layer 2"><path class="cls-1" d="M28.89,0H.54A.55.55,0,0,0,0,.55V22.64A.55.55,0,0,0,.16,23L14.35,37.54a.53.53,0,0,0,.77,0l5.31-5.46a.56.56,0,0,0,0-.78l-1.09-1.11a.54.54,0,0,0-.76,0l-3.47,3.57a.52.52,0,0,1-.76,0L2.77,21.92a.55.55,0,0,1-.16-.39V3.23a.55.55,0,0,1,.54-.56H26.28a.56.56,0,0,1,.54.56V21.52a.59.59,0,0,1-.16.39l-2.61,2.66-2.91-3L23,19.67a.54.54,0,0,0,.15-.39v-12a.55.55,0,0,0-.54-.56H6.75a.55.55,0,0,0-.54.56V8.79a.55.55,0,0,0,.54.56H20a.54.54,0,0,1,.54.55v8.27a.51.51,0,0,1-.16.39L19.29,19.7l-3.15-3.23a.55.55,0,0,0-.38-.16H10.67a.55.55,0,0,0-.54.55v1.57a.54.54,0,0,0,.54.55h4a.52.52,0,0,1,.38.17L23.68,28a.54.54,0,0,0,.76,0l1.09-1.11s0,0,0-.05L29.27,23a.55.55,0,0,0,.16-.39V.55A.55.55,0,0,0,28.89,0Z"/><text class="cls-2" transform="translate(41.13 18.12) scale(0.98 1)">DARIMAX</text><text class="cls-3" transform="translate(61.47 31.82) scale(0.98 1)">RACING</text></g></g></svg>